<?xml version="1.0" encoding="utf-8"?>
<!-- Generated by IcoMoon.io -->
<!DOCTYPE svg PUBLIC "-//W3C//DTD SVG 1.1//EN" "http://www.w3.org/Graphics/SVG/1.1/DTD/svg11.dtd">
<svg version="1.1" xmlns="http://www.w3.org/2000/svg" xmlns:xlink="http://www.w3.org/1999/xlink" width="120" height="45" viewBox="0 0 120 45">
<svg id="icon-title" width="20" height="20" viewBox="0 0 20 20" x="0" y="0">
<path fill="#000" d="M17.5 0h-15c-0.345 0-0.625 0.28-0.625 0.625v3.75c0 0.345 0.28 0.625 0.625 0.625h0.625c0.345 0 0.625-0.28 0.625-0.625l1.25-1.875h3.75v15l-3.125 1.25c-0.345 0-0.625 0.279-0.625 0.625s0.28 0.625 0.625 0.625h8.75c0.346 0 0.625-0.279 0.625-0.625s-0.279-0.625-0.625-0.625l-3.125-1.25v-15h3.75l1.25 1.875c0 0.345 0.279 0.625 0.625 0.625h0.625c0.346 0 0.625-0.28 0.625-0.625v-3.75c0-0.345-0.279-0.625-0.625-0.625z"></path>
</svg>
<svg id="icon-fb" width="12" height="20" viewBox="0 0 12 20" x="25" y="0">
<path fill="#3b5998" d="M10.703 0.134v2.946h-1.752q-0.96 0-1.295 0.402t-0.335 1.205v2.109h3.27l-0.435 3.304h-2.835v8.471h-3.415v-8.471h-2.846v-3.304h2.846v-2.433q0-2.076 1.161-3.22t3.092-1.144q1.641 0 2.545 0.134z"></path>
</svg>
<svg id="icon-at" width="17" height="20" viewBox="0 0 17 20" x="50" y="0">
<path fill="#d34836" d="M10.848 8.65q0-1.205-0.597-1.886t-1.646-0.681q-0.703 0-1.384 0.34t-1.228 0.943-0.887 1.529-0.34 2.009q0 1.25 0.597 1.931t1.68 0.681q1.071 0 1.964-0.742t1.367-1.853 0.474-2.271zM17.143 10q0 1.239-0.413 2.199t-1.099 1.507-1.468 0.831-1.618 0.307q-0.067 0-0.173 0.006t-0.184 0.006q-1.060 0-1.585-0.592-0.313-0.368-0.368-0.926-0.58 0.737-1.468 1.228t-1.936 0.491q-1.797 0-2.785-1.066t-0.988-3.008q0-1.752 0.737-3.237t1.998-2.349 2.746-0.865q0.971 0 1.73 0.396t1.183 1.11l0.022-0.212 0.123-0.625q0.011-0.067 0.061-0.134t0.106-0.067h1.317q0.056 0 0.145 0.123 0.056 0.056 0.033 0.179l-1.339 6.853q-0.056 0.268-0.056 0.536 0 0.435 0.14 0.58t0.497 0.145q0.313-0.011 0.636-0.061t0.815-0.268 0.859-0.558 0.636-0.999 0.268-1.529q0-3.259-1.942-5.201t-5.201-1.942q-1.451 0-2.773 0.569t-2.277 1.523-1.523 2.277-0.569 2.773 0.569 2.773 1.523 2.277 2.277 1.523 2.773 0.569q2.545 0 4.52-1.607 0.123-0.1 0.268-0.089t0.234 0.134l0.458 0.547q0.089 0.134 0.078 0.268-0.022 0.145-0.134 0.246-1.138 0.926-2.539 1.429t-2.885 0.502q-1.741 0-3.326-0.681t-2.734-1.83-1.83-2.734-0.681-3.326 0.681-3.326 1.83-2.734 2.734-1.83 3.326-0.681q3.839 0 6.205 2.366t2.366 6.205z"></path>
</svg>
<svg id="icon-text" width="20" height="20" viewBox="0 0 20 20" x="75" y="0">
<path d="M16.875 0h-15c-1.031 0-1.875 0.844-1.875 1.875v16.25c0 1.031 0.844 1.875 1.875 1.875h15c1.031 0 1.875-0.844 1.875-1.875v-16.25c0-1.031-0.844-1.875-1.875-1.875zM16.25 17.5h-13.75v-15h13.75v15zM5 8.75h8.75v1.25h-8.75zM5 11.25h8.75v1.25h-8.75zM5 13.75h8.75v1.25h-8.75zM5 6.25h8.75v1.25h-8.75z"></path>
</svg>
<svg id="icon-mobile" width="20" height="20" viewBox="0 0 20 20" x="100" y="0">
<path fill="#ddd" d="M15 0h-11.25c-0.688 0-1.25 0.562-1.25 1.25v17.5c0 0.688 0.562 1.25 1.25 1.25h11.25c0.688 0 1.25-0.563 1.25-1.25v-17.5c0-0.688-0.563-1.25-1.25-1.25zM9.375 19.097c-0.537 0-0.972-0.435-0.972-0.972s0.435-0.972 0.972-0.972 0.972 0.435 0.972 0.972-0.435 0.972-0.972 0.972zM15 16.25h-11.25v-13.75h11.25v13.75z"></path>
</svg>
<svg id="icon-user-tie" width="20" height="20" viewBox="0 0 20 20" x="0" y="25">
<path d="M6.25 3.75c0-2.071 1.679-3.75 3.75-3.75s3.75 1.679 3.75 3.75c0 2.071-1.679 3.75-3.75 3.75s-3.75-1.679-3.75-3.75zM15.002 8.75h-0.692l-3.889 7.895 1.454-7.27-1.875-1.875-1.875 1.875 1.454 7.27-3.889-7.895h-0.692c-2.499 0-2.499 1.679-2.499 3.75v6.25h15v-6.25c0-2.071 0-3.75-2.498-3.75z"></path>
</svg>
<svg id="icon-checkmark" width="20" height="20" viewBox="0 0 20 20" x="25" y="25">
<path d="M16.875 2.5l-9.375 9.375-4.375-4.375-3.125 3.125 7.5 7.5 12.5-12.5z"></path>
</svg>
</svg>
